<?xml version="1.0" encoding="utf-8"?>
<!-- Generator: Adobe Illustrator 25.2.3, SVG Export Plug-In . SVG Version: 6.00 Build 0)  -->
<svg version="1.1" id="Capa_1" xmlns="http://www.w3.org/2000/svg" xmlns:xlink="http://www.w3.org/1999/xlink" x="0px" y="0px"
	 viewBox="0 0 233.5 23.1" style="enable-background:new 0 0 233.5 23.1;" xml:space="preserve">
<style type="text/css">
	.st0{enable-background:new    ;}
	.st1{fill:#5B5B5F;}
	.st2{fill:none;stroke:#9A999E;stroke-width:0.51;stroke-miterlimit:10;}
</style>
<g class="st0">
	<path class="st1" d="M91.7,4.9c0,0.1,0.1,0.2,0.2,0.2c0.1,0.1,0.3,0.1,0.5,0.2c0.2,0.1,0.4,0.1,0.7,0.2c0.3,0.1,0.6,0.2,0.9,0.3
		c0.3,0.1,0.5,0.2,0.6,0.4c0.2,0.1,0.3,0.3,0.4,0.5s0.1,0.4,0.1,0.7c0,0.3-0.1,0.6-0.2,0.8s-0.3,0.4-0.5,0.6
		c-0.2,0.2-0.4,0.3-0.7,0.4c-0.3,0.1-0.6,0.1-0.9,0.1c-0.5,0-0.9-0.1-1.4-0.2s-0.8-0.4-1.2-0.8L91,7.5c0.3,0.3,0.6,0.5,0.9,0.6
		s0.7,0.2,1.1,0.2c0.3,0,0.6-0.1,0.8-0.2C94,8,94.1,7.8,94.1,7.5c0-0.1,0-0.2-0.1-0.3c0-0.1-0.1-0.2-0.2-0.2
		c-0.1-0.1-0.2-0.1-0.4-0.2S93,6.6,92.7,6.6c-0.3-0.1-0.6-0.2-0.9-0.3c-0.3-0.1-0.5-0.2-0.7-0.4c-0.2-0.1-0.3-0.3-0.4-0.5
		c-0.1-0.2-0.1-0.4-0.1-0.7c0-0.3,0.1-0.5,0.2-0.7c0.1-0.2,0.3-0.4,0.4-0.6c0.2-0.2,0.4-0.3,0.7-0.4c0.3-0.1,0.5-0.1,0.9-0.1
		c0.5,0,0.9,0.1,1.2,0.2s0.7,0.3,1,0.6l-0.6,0.8c-0.3-0.2-0.6-0.4-0.8-0.5c-0.3-0.1-0.6-0.2-0.8-0.2c-0.3,0-0.6,0.1-0.8,0.2
		c-0.2,0.1-0.3,0.3-0.3,0.5C91.7,4.7,91.7,4.8,91.7,4.9z"/>
	<path class="st1" d="M96.2,3.8v-1h1.2v1H96.2z M96.2,9.2V4.5h1.1v4.7H96.2z"/>
</g>
<g class="st0">
	<path class="st1" d="M101.8,8.5c-0.1,0.2-0.2,0.3-0.4,0.5s-0.3,0.2-0.6,0.3s-0.4,0.1-0.7,0.1c-0.3,0-0.7-0.1-1-0.2
		c-0.3-0.1-0.7-0.3-1-0.5l0.5-0.7c0.3,0.2,0.5,0.3,0.8,0.4c0.3,0.1,0.5,0.1,0.8,0.1c0.2,0,0.4,0,0.5-0.1c0.1-0.1,0.2-0.2,0.2-0.4v0
		c0-0.1,0-0.2-0.1-0.2s-0.1-0.1-0.2-0.2c-0.1-0.1-0.2-0.1-0.3-0.1c-0.1,0-0.3-0.1-0.4-0.1c-0.2-0.1-0.3-0.1-0.5-0.2
		C99.2,7,99,6.9,98.9,6.8c-0.1-0.1-0.3-0.2-0.3-0.4c-0.1-0.2-0.1-0.3-0.1-0.6v0c0-0.2,0-0.4,0.1-0.6s0.2-0.3,0.4-0.5
		s0.3-0.2,0.5-0.3s0.4-0.1,0.7-0.1c0.3,0,0.6,0,0.9,0.1c0.3,0.1,0.6,0.2,0.8,0.4l-0.4,0.8c-0.2-0.1-0.5-0.2-0.7-0.3
		c-0.2-0.1-0.4-0.1-0.6-0.1c-0.2,0-0.4,0-0.5,0.1c-0.1,0.1-0.2,0.2-0.2,0.3v0c0,0.1,0,0.2,0.1,0.2s0.1,0.1,0.2,0.2
		c0.1,0.1,0.2,0.1,0.3,0.1c0.1,0,0.3,0.1,0.4,0.1c0.2,0.1,0.3,0.1,0.5,0.2s0.3,0.2,0.5,0.3c0.1,0.1,0.3,0.2,0.3,0.4
		c0.1,0.1,0.1,0.3,0.1,0.5v0C101.9,8.1,101.9,8.3,101.8,8.5z"/>
</g>
<g class="st0">
	<path class="st1" d="M104,7.7c0,0.2,0.1,0.4,0.2,0.5c0.1,0.1,0.2,0.1,0.4,0.1c0.2,0,0.5-0.1,0.7-0.2V9c-0.1,0.1-0.3,0.1-0.4,0.2
		c-0.2,0-0.3,0.1-0.5,0.1c-0.2,0-0.4,0-0.5-0.1s-0.3-0.1-0.4-0.2s-0.2-0.2-0.3-0.4C103,8.4,103,8.2,103,7.9V5.4h-0.6V4.5h0.6V3.2
		h1.1v1.3h1.3v0.9H104V7.7z"/>
</g>
<g class="st0">
	<path class="st1" d="M107.4,8.1c0.2,0.2,0.5,0.3,0.9,0.3c0.3,0,0.5,0,0.7-0.1c0.2-0.1,0.4-0.2,0.6-0.4l0.6,0.6
		c-0.2,0.3-0.5,0.5-0.8,0.6c-0.3,0.2-0.7,0.2-1.1,0.2c-0.3,0-0.7-0.1-1-0.2c-0.3-0.1-0.6-0.3-0.8-0.5c-0.2-0.2-0.4-0.5-0.5-0.8
		s-0.2-0.6-0.2-1c0-0.3,0.1-0.7,0.2-1s0.3-0.6,0.5-0.8c0.2-0.2,0.4-0.4,0.7-0.5c0.3-0.1,0.6-0.2,0.9-0.2c0.4,0,0.7,0.1,1,0.2
		c0.3,0.1,0.5,0.3,0.7,0.6c0.2,0.2,0.3,0.5,0.4,0.8s0.1,0.6,0.1,1c0,0,0,0.1,0,0.1s0,0.1,0,0.2h-3.5C107,7.6,107.1,7.9,107.4,8.1z
		 M109.3,6.5c0-0.2-0.1-0.3-0.1-0.5c-0.1-0.2-0.1-0.3-0.2-0.4c-0.1-0.1-0.2-0.2-0.4-0.3c-0.1-0.1-0.3-0.1-0.5-0.1
		c-0.3,0-0.6,0.1-0.8,0.3c-0.2,0.2-0.3,0.5-0.4,0.9H109.3z"/>
	<path class="st1" d="M115.9,4.6c0.3-0.2,0.6-0.2,0.9-0.2c0.5,0,0.9,0.2,1.2,0.5c0.3,0.3,0.4,0.8,0.4,1.3v3h-1.1V6.5
		c0-0.4-0.1-0.7-0.2-0.9c-0.2-0.2-0.4-0.3-0.7-0.3c-0.3,0-0.5,0.1-0.7,0.3s-0.3,0.5-0.3,0.9v2.7h-1.1V6.5c0-0.4-0.1-0.7-0.2-0.8
		c-0.2-0.2-0.4-0.3-0.7-0.3s-0.5,0.1-0.7,0.3c-0.2,0.2-0.3,0.5-0.3,0.9v2.6h-1.1V4.5h1.1v0.7c0.1-0.1,0.2-0.2,0.2-0.3
		c0.1-0.1,0.2-0.2,0.3-0.3c0.1-0.1,0.2-0.1,0.4-0.2c0.1,0,0.3-0.1,0.5-0.1c0.3,0,0.6,0.1,0.9,0.2c0.2,0.2,0.4,0.4,0.5,0.6
		C115.4,5,115.6,4.8,115.9,4.6z"/>
	<path class="st1" d="M122.5,9.2V8.6c-0.2,0.2-0.4,0.4-0.6,0.5s-0.6,0.2-0.9,0.2c-0.2,0-0.4,0-0.6-0.1c-0.2-0.1-0.4-0.2-0.5-0.3
		c-0.2-0.1-0.3-0.3-0.4-0.5c-0.1-0.2-0.1-0.4-0.1-0.6v0c0-0.3,0-0.5,0.1-0.7c0.1-0.2,0.2-0.3,0.4-0.5c0.2-0.1,0.4-0.2,0.6-0.3
		s0.5-0.1,0.8-0.1c0.3,0,0.5,0,0.7,0.1c0.2,0,0.4,0.1,0.6,0.1V6.4c0-0.3-0.1-0.6-0.3-0.8c-0.2-0.2-0.5-0.3-0.9-0.3
		c-0.3,0-0.5,0-0.7,0.1c-0.2,0.1-0.4,0.1-0.6,0.2l-0.3-0.9c0.3-0.1,0.5-0.2,0.8-0.3c0.3-0.1,0.6-0.1,1-0.1c0.7,0,1.2,0.2,1.6,0.5
		c0.3,0.3,0.5,0.8,0.5,1.5v2.8H122.5z M122.5,7.2c-0.1-0.1-0.3-0.1-0.5-0.1c-0.2,0-0.4-0.1-0.6-0.1c-0.3,0-0.6,0.1-0.8,0.2
		s-0.3,0.3-0.3,0.6v0c0,0.2,0.1,0.4,0.3,0.5s0.4,0.2,0.6,0.2c0.2,0,0.3,0,0.5-0.1c0.2,0,0.3-0.1,0.4-0.2c0.1-0.1,0.2-0.2,0.3-0.3
		s0.1-0.3,0.1-0.4V7.2z"/>
	<path class="st1" d="M128.5,3v6.3h-1.1V3H128.5z"/>
	<path class="st1" d="M130.9,9.2h-1.1V4.5h1.1v0.7c0.1-0.1,0.2-0.2,0.3-0.3c0.1-0.1,0.2-0.2,0.3-0.3c0.1-0.1,0.3-0.1,0.4-0.2
		c0.1,0,0.3-0.1,0.5-0.1c0.5,0,0.9,0.2,1.2,0.5s0.4,0.8,0.4,1.3v3H133V6.5c0-0.4-0.1-0.7-0.3-0.9s-0.4-0.3-0.7-0.3
		c-0.3,0-0.6,0.1-0.8,0.3c-0.2,0.2-0.3,0.5-0.3,0.9V9.2z"/>
</g>
<g class="st0">
	<path class="st1" d="M136.5,7.7c0,0.2,0.1,0.4,0.2,0.5c0.1,0.1,0.2,0.1,0.4,0.1c0.2,0,0.5-0.1,0.7-0.2V9c-0.1,0.1-0.3,0.1-0.4,0.2
		c-0.2,0-0.3,0.1-0.5,0.1c-0.2,0-0.4,0-0.5-0.1s-0.3-0.1-0.4-0.2s-0.2-0.2-0.3-0.4c-0.1-0.2-0.1-0.4-0.1-0.7V5.4h-0.6V4.5h0.6V3.2
		h1.1v1.3h1.3v0.9h-1.3V7.7z"/>
</g>
<g class="st0">
	<path class="st1" d="M139.8,8.1c0.2,0.2,0.5,0.3,0.9,0.3c0.3,0,0.5,0,0.7-0.1c0.2-0.1,0.4-0.2,0.6-0.4l0.6,0.6
		c-0.2,0.3-0.5,0.5-0.8,0.6c-0.3,0.2-0.7,0.2-1.1,0.2c-0.3,0-0.7-0.1-1-0.2c-0.3-0.1-0.6-0.3-0.8-0.5c-0.2-0.2-0.4-0.5-0.5-0.8
		s-0.2-0.6-0.2-1c0-0.3,0.1-0.7,0.2-1s0.3-0.6,0.5-0.8c0.2-0.2,0.4-0.4,0.7-0.5c0.3-0.1,0.6-0.2,0.9-0.2c0.4,0,0.7,0.1,1,0.2
		c0.3,0.1,0.5,0.3,0.7,0.6c0.2,0.2,0.3,0.5,0.4,0.8c0.1,0.3,0.1,0.6,0.1,1c0,0,0,0.1,0,0.1s0,0.1,0,0.2h-3.5
		C139.4,7.6,139.6,7.9,139.8,8.1z M141.8,6.5c0-0.2-0.1-0.3-0.1-0.5c-0.1-0.2-0.1-0.3-0.2-0.4c-0.1-0.1-0.2-0.2-0.4-0.3
		c-0.1-0.1-0.3-0.1-0.5-0.1c-0.3,0-0.6,0.1-0.8,0.3c-0.2,0.2-0.3,0.5-0.4,0.9H141.8z"/>
	<path class="st1" d="M147.7,10.1c-0.4,0.4-1.1,0.6-1.9,0.6c-0.8,0-1.5-0.2-2.1-0.6l0.4-0.8c0.2,0.2,0.5,0.3,0.8,0.4
		c0.3,0.1,0.6,0.1,0.9,0.1c0.5,0,0.9-0.1,1.1-0.4c0.3-0.2,0.4-0.6,0.4-1.1V8c-0.2,0.3-0.4,0.5-0.7,0.6c-0.3,0.2-0.6,0.2-1,0.2
		c-0.3,0-0.5,0-0.8-0.1c-0.3-0.1-0.5-0.2-0.7-0.4s-0.4-0.4-0.5-0.7c-0.1-0.3-0.2-0.6-0.2-0.9c0-0.4,0.1-0.7,0.2-0.9s0.3-0.5,0.5-0.7
		s0.4-0.3,0.7-0.4c0.3-0.1,0.5-0.2,0.8-0.2c0.4,0,0.7,0.1,1,0.2s0.5,0.3,0.7,0.6V4.5h1.1v3.8C148.4,9.1,148.2,9.7,147.7,10.1z
		 M147.2,6.1c-0.1-0.2-0.2-0.3-0.3-0.4s-0.3-0.2-0.4-0.3c-0.2-0.1-0.3-0.1-0.5-0.1c-0.2,0-0.4,0-0.5,0.1c-0.2,0.1-0.3,0.1-0.4,0.3
		s-0.2,0.2-0.3,0.4c-0.1,0.2-0.1,0.3-0.1,0.5s0,0.4,0.1,0.5c0.1,0.2,0.2,0.3,0.3,0.4s0.3,0.2,0.4,0.3c0.2,0.1,0.3,0.1,0.5,0.1
		s0.4,0,0.5-0.1c0.2-0.1,0.3-0.2,0.4-0.3s0.2-0.3,0.3-0.4c0.1-0.2,0.1-0.3,0.1-0.5S147.3,6.2,147.2,6.1z"/>
</g>
<g class="st0">
	<path class="st1" d="M150.6,9.2h-1.1V4.5h1.1v1.1c0.1-0.4,0.4-0.6,0.6-0.9c0.3-0.2,0.6-0.3,1-0.3v1.1h-0.1c-0.2,0-0.5,0-0.7,0.1
		s-0.4,0.2-0.5,0.3c-0.1,0.2-0.3,0.4-0.3,0.6c-0.1,0.2-0.1,0.5-0.1,0.8V9.2z"/>
</g>
<g class="st0">
	<path class="st1" d="M155.7,9.2V8.6c-0.2,0.2-0.4,0.4-0.6,0.5s-0.6,0.2-0.9,0.2c-0.2,0-0.4,0-0.6-0.1s-0.4-0.2-0.5-0.3
		c-0.2-0.1-0.3-0.3-0.4-0.5c-0.1-0.2-0.1-0.4-0.1-0.6v0c0-0.3,0-0.5,0.1-0.7c0.1-0.2,0.2-0.3,0.4-0.5c0.2-0.1,0.4-0.2,0.6-0.3
		c0.2-0.1,0.5-0.1,0.8-0.1c0.3,0,0.5,0,0.7,0.1c0.2,0,0.4,0.1,0.6,0.1V6.4c0-0.3-0.1-0.6-0.3-0.8c-0.2-0.2-0.5-0.3-0.9-0.3
		c-0.3,0-0.5,0-0.7,0.1c-0.2,0.1-0.4,0.1-0.6,0.2l-0.3-0.9c0.3-0.1,0.5-0.2,0.8-0.3c0.3-0.1,0.6-0.1,1-0.1c0.7,0,1.2,0.2,1.6,0.5
		c0.3,0.3,0.5,0.8,0.5,1.5v2.8H155.7z M155.7,7.2c-0.1-0.1-0.3-0.1-0.5-0.1c-0.2,0-0.4-0.1-0.6-0.1c-0.3,0-0.6,0.1-0.8,0.2
		s-0.3,0.3-0.3,0.6v0c0,0.2,0.1,0.4,0.3,0.5c0.2,0.1,0.4,0.2,0.6,0.2c0.2,0,0.3,0,0.5-0.1c0.2,0,0.3-0.1,0.4-0.2
		c0.1-0.1,0.2-0.2,0.3-0.3s0.1-0.3,0.1-0.4V7.2z"/>
	<path class="st1" d="M161.4,9.2V8.4c-0.2,0.2-0.4,0.5-0.6,0.6c-0.3,0.2-0.6,0.3-1,0.3c-0.3,0-0.5-0.1-0.8-0.2
		c-0.3-0.1-0.5-0.3-0.7-0.5c-0.2-0.2-0.4-0.5-0.5-0.8c-0.1-0.3-0.2-0.7-0.2-1s0.1-0.7,0.2-1c0.1-0.3,0.3-0.6,0.5-0.8
		s0.4-0.4,0.7-0.5c0.3-0.1,0.5-0.2,0.8-0.2c0.4,0,0.7,0.1,1,0.2c0.3,0.2,0.5,0.4,0.6,0.6V2.7h1.1v6.5H161.4z M161.4,6.2
		c-0.1-0.2-0.2-0.3-0.3-0.5c-0.1-0.1-0.3-0.2-0.4-0.3s-0.3-0.1-0.5-0.1c-0.2,0-0.4,0-0.5,0.1c-0.2,0.1-0.3,0.2-0.4,0.3
		c-0.1,0.1-0.2,0.3-0.3,0.5s-0.1,0.4-0.1,0.6c0,0.2,0,0.4,0.1,0.6s0.2,0.3,0.3,0.5c0.1,0.1,0.3,0.2,0.4,0.3c0.2,0.1,0.3,0.1,0.5,0.1
		c0.2,0,0.3,0,0.5-0.1s0.3-0.2,0.4-0.3s0.2-0.3,0.3-0.5s0.1-0.4,0.1-0.6S161.4,6.4,161.4,6.2z"/>
	<path class="st1" d="M168.3,7.8c-0.1,0.3-0.3,0.6-0.5,0.8c-0.2,0.2-0.5,0.4-0.8,0.5s-0.6,0.2-1,0.2c-0.4,0-0.7-0.1-1-0.2
		s-0.6-0.3-0.8-0.5c-0.2-0.2-0.4-0.5-0.5-0.8s-0.2-0.6-0.2-1c0-0.3,0.1-0.7,0.2-1s0.3-0.6,0.5-0.8c0.2-0.2,0.5-0.4,0.8-0.5
		c0.3-0.1,0.6-0.2,1-0.2s0.7,0.1,1,0.2s0.6,0.3,0.8,0.5c0.2,0.2,0.4,0.5,0.5,0.8c0.1,0.3,0.2,0.6,0.2,1
		C168.5,7.2,168.4,7.5,168.3,7.8z M167.3,6.3c-0.1-0.2-0.2-0.3-0.3-0.5c-0.1-0.1-0.3-0.2-0.5-0.3s-0.4-0.1-0.6-0.1s-0.4,0-0.6,0.1
		c-0.2,0.1-0.3,0.2-0.4,0.3s-0.2,0.3-0.3,0.5s-0.1,0.4-0.1,0.6s0,0.4,0.1,0.6s0.2,0.3,0.3,0.5c0.1,0.1,0.3,0.2,0.5,0.3
		s0.4,0.1,0.6,0.1c0.2,0,0.4,0,0.6-0.1c0.2-0.1,0.3-0.2,0.4-0.3c0.1-0.1,0.2-0.3,0.3-0.5c0.1-0.2,0.1-0.4,0.1-0.6
		C167.4,6.7,167.4,6.5,167.3,6.3z"/>
	<path class="st1" d="M175.5,9.2V8.4c-0.2,0.2-0.4,0.5-0.6,0.6c-0.3,0.2-0.6,0.3-1,0.3c-0.3,0-0.5-0.1-0.8-0.2
		c-0.3-0.1-0.5-0.3-0.7-0.5c-0.2-0.2-0.4-0.5-0.5-0.8s-0.2-0.7-0.2-1s0.1-0.7,0.2-1c0.1-0.3,0.3-0.6,0.5-0.8
		c0.2-0.2,0.4-0.4,0.7-0.5c0.3-0.1,0.5-0.2,0.8-0.2c0.4,0,0.7,0.1,1,0.2c0.3,0.2,0.5,0.4,0.6,0.6V2.7h1.1v6.5H175.5z M175.4,6.2
		c-0.1-0.2-0.2-0.3-0.3-0.5c-0.1-0.1-0.3-0.2-0.4-0.3s-0.3-0.1-0.5-0.1c-0.2,0-0.4,0-0.5,0.1s-0.3,0.2-0.4,0.3s-0.2,0.3-0.3,0.5
		s-0.1,0.4-0.1,0.6c0,0.2,0,0.4,0.1,0.6s0.2,0.3,0.3,0.5s0.3,0.2,0.4,0.3s0.3,0.1,0.5,0.1c0.2,0,0.4,0,0.5-0.1s0.3-0.2,0.4-0.3
		c0.1-0.1,0.2-0.3,0.3-0.5s0.1-0.4,0.1-0.6S175.4,6.4,175.4,6.2z"/>
	<path class="st1" d="M179,8.1c0.2,0.2,0.5,0.3,0.9,0.3c0.3,0,0.5,0,0.7-0.1c0.2-0.1,0.4-0.2,0.6-0.4l0.6,0.6
		c-0.2,0.3-0.5,0.5-0.8,0.6c-0.3,0.2-0.7,0.2-1.1,0.2c-0.3,0-0.7-0.1-1-0.2s-0.6-0.3-0.8-0.5c-0.2-0.2-0.4-0.5-0.5-0.8
		s-0.2-0.6-0.2-1c0-0.3,0.1-0.7,0.2-1s0.3-0.6,0.5-0.8c0.2-0.2,0.4-0.4,0.7-0.5c0.3-0.1,0.6-0.2,0.9-0.2c0.4,0,0.7,0.1,1,0.2
		c0.3,0.1,0.5,0.3,0.7,0.6c0.2,0.2,0.3,0.5,0.4,0.8c0.1,0.3,0.1,0.6,0.1,1c0,0,0,0.1,0,0.1s0,0.1,0,0.2h-3.5
		C178.6,7.6,178.8,7.9,179,8.1z M181,6.5c0-0.2-0.1-0.3-0.1-0.5c-0.1-0.2-0.1-0.3-0.2-0.4s-0.2-0.2-0.4-0.3s-0.3-0.1-0.5-0.1
		c-0.3,0-0.6,0.1-0.8,0.3c-0.2,0.2-0.3,0.5-0.4,0.9H181z"/>
</g>
<g class="st0">
	<path class="st1" d="M190.2,4h-3.6v1.7h3.2v1h-3.2v2.5h-1.1V3h4.6V4z"/>
</g>
<g class="st0">
	<path class="st1" d="M195.5,7.8c-0.1,0.3-0.3,0.6-0.5,0.8c-0.2,0.2-0.5,0.4-0.8,0.5s-0.6,0.2-1,0.2c-0.4,0-0.7-0.1-1-0.2
		s-0.6-0.3-0.8-0.5c-0.2-0.2-0.4-0.5-0.5-0.8s-0.2-0.6-0.2-1c0-0.3,0.1-0.7,0.2-1s0.3-0.6,0.5-0.8c0.2-0.2,0.5-0.4,0.8-0.5
		c0.3-0.1,0.6-0.2,1-0.2s0.7,0.1,1,0.2s0.6,0.3,0.8,0.5c0.2,0.2,0.4,0.5,0.5,0.8c0.1,0.3,0.2,0.6,0.2,1
		C195.7,7.2,195.7,7.5,195.5,7.8z M194.5,6.3c-0.1-0.2-0.2-0.3-0.3-0.5c-0.1-0.1-0.3-0.2-0.5-0.3c-0.2-0.1-0.4-0.1-0.6-0.1
		c-0.2,0-0.4,0-0.6,0.1c-0.2,0.1-0.3,0.2-0.4,0.3c-0.1,0.1-0.2,0.3-0.3,0.5c-0.1,0.2-0.1,0.4-0.1,0.6s0,0.4,0.1,0.6s0.2,0.3,0.3,0.5
		c0.1,0.1,0.3,0.2,0.5,0.3c0.2,0.1,0.4,0.1,0.6,0.1c0.2,0,0.4,0,0.6-0.1s0.3-0.2,0.4-0.3c0.1-0.1,0.2-0.3,0.3-0.5s0.1-0.4,0.1-0.6
		C194.6,6.7,194.6,6.5,194.5,6.3z"/>
	<path class="st1" d="M197.7,9.2h-1.1V4.5h1.1v1.1c0.1-0.4,0.4-0.6,0.6-0.9c0.3-0.2,0.6-0.3,1-0.3v1.1h-0.1c-0.2,0-0.5,0-0.7,0.1
		c-0.2,0.1-0.4,0.2-0.5,0.3c-0.1,0.2-0.3,0.4-0.3,0.6c-0.1,0.2-0.1,0.5-0.1,0.8V9.2z"/>
	<path class="st1" d="M204.8,4.6c0.3-0.2,0.6-0.2,0.9-0.2c0.5,0,0.9,0.2,1.2,0.5s0.4,0.8,0.4,1.3v3h-1.1V6.5c0-0.4-0.1-0.7-0.2-0.9
		c-0.2-0.2-0.4-0.3-0.7-0.3c-0.3,0-0.5,0.1-0.7,0.3s-0.3,0.5-0.3,0.9v2.7h-1.1V6.5c0-0.4-0.1-0.7-0.2-0.8c-0.2-0.2-0.4-0.3-0.7-0.3
		c-0.3,0-0.5,0.1-0.7,0.3c-0.2,0.2-0.3,0.5-0.3,0.9v2.6h-1.1V4.5h1.1v0.7c0.1-0.1,0.2-0.2,0.2-0.3c0.1-0.1,0.2-0.2,0.3-0.3
		s0.2-0.1,0.4-0.2c0.1,0,0.3-0.1,0.5-0.1c0.3,0,0.6,0.1,0.9,0.2c0.2,0.2,0.4,0.4,0.5,0.6C204.3,5,204.5,4.8,204.8,4.6z"/>
	<path class="st1" d="M211.4,9.2V8.6c-0.2,0.2-0.4,0.4-0.6,0.5s-0.6,0.2-0.9,0.2c-0.2,0-0.4,0-0.6-0.1s-0.4-0.2-0.5-0.3
		s-0.3-0.3-0.4-0.5s-0.1-0.4-0.1-0.6v0c0-0.3,0-0.5,0.1-0.7c0.1-0.2,0.2-0.3,0.4-0.5c0.2-0.1,0.4-0.2,0.6-0.3
		c0.2-0.1,0.5-0.1,0.8-0.1c0.3,0,0.5,0,0.7,0.1c0.2,0,0.4,0.1,0.6,0.1V6.4c0-0.3-0.1-0.6-0.3-0.8c-0.2-0.2-0.5-0.3-0.9-0.3
		c-0.3,0-0.5,0-0.7,0.1c-0.2,0.1-0.4,0.1-0.6,0.2l-0.3-0.9c0.3-0.1,0.5-0.2,0.8-0.3c0.3-0.1,0.6-0.1,1-0.1c0.7,0,1.2,0.2,1.6,0.5
		c0.3,0.3,0.5,0.8,0.5,1.5v2.8H211.4z M211.4,7.2c-0.1-0.1-0.3-0.1-0.5-0.1c-0.2,0-0.4-0.1-0.6-0.1c-0.3,0-0.6,0.1-0.8,0.2
		s-0.3,0.3-0.3,0.6v0c0,0.2,0.1,0.4,0.3,0.5c0.2,0.1,0.4,0.2,0.6,0.2c0.2,0,0.3,0,0.5-0.1c0.2,0,0.3-0.1,0.4-0.2
		c0.1-0.1,0.2-0.2,0.3-0.3s0.1-0.3,0.1-0.4V7.2z"/>
	<path class="st1" d="M216.9,9.1c-0.3,0.2-0.7,0.2-1.1,0.2c-0.4,0-0.7-0.1-1-0.2s-0.6-0.3-0.8-0.5c-0.2-0.2-0.4-0.5-0.5-0.8
		s-0.2-0.6-0.2-1c0-0.3,0.1-0.7,0.2-1s0.3-0.6,0.5-0.8c0.2-0.2,0.5-0.4,0.8-0.5c0.3-0.1,0.6-0.2,1-0.2c0.4,0,0.8,0.1,1.1,0.2
		c0.3,0.1,0.6,0.3,0.8,0.6L217,5.9c-0.2-0.2-0.3-0.3-0.5-0.4s-0.4-0.2-0.7-0.2c-0.2,0-0.4,0-0.5,0.1s-0.3,0.2-0.4,0.3
		s-0.2,0.3-0.3,0.5s-0.1,0.4-0.1,0.6c0,0.2,0,0.4,0.1,0.6s0.2,0.3,0.3,0.5c0.1,0.1,0.3,0.2,0.4,0.3c0.2,0.1,0.4,0.1,0.6,0.1
		c0.3,0,0.5-0.1,0.7-0.2c0.2-0.1,0.4-0.3,0.5-0.4l0.7,0.6C217.4,8.7,217.2,8.9,216.9,9.1z"/>
	<path class="st1" d="M218.5,3.8v-1h1.2v1H218.5z M218.5,9.2V4.5h1.1v4.7H218.5z"/>
	<path class="st1" d="M225.4,7.8c-0.1,0.3-0.3,0.6-0.5,0.8c-0.2,0.2-0.5,0.4-0.8,0.5s-0.6,0.2-1,0.2c-0.4,0-0.7-0.1-1-0.2
		s-0.6-0.3-0.8-0.5c-0.2-0.2-0.4-0.5-0.5-0.8s-0.2-0.6-0.2-1c0-0.3,0.1-0.7,0.2-1c0.1-0.3,0.3-0.6,0.5-0.8c0.2-0.2,0.5-0.4,0.8-0.5
		c0.3-0.1,0.6-0.2,1-0.2s0.7,0.1,1,0.2s0.6,0.3,0.8,0.5c0.2,0.2,0.4,0.5,0.5,0.8c0.1,0.3,0.2,0.6,0.2,1
		C225.6,7.2,225.6,7.5,225.4,7.8z M224.4,6.3c-0.1-0.2-0.2-0.3-0.3-0.5c-0.1-0.1-0.3-0.2-0.5-0.3s-0.4-0.1-0.6-0.1s-0.4,0-0.6,0.1
		c-0.2,0.1-0.3,0.2-0.4,0.3c-0.1,0.1-0.2,0.3-0.3,0.5s-0.1,0.4-0.1,0.6s0,0.4,0.1,0.6c0.1,0.2,0.2,0.3,0.3,0.5
		c0.1,0.1,0.3,0.2,0.5,0.3c0.2,0.1,0.4,0.1,0.6,0.1c0.2,0,0.4,0,0.6-0.1c0.2-0.1,0.3-0.2,0.4-0.3c0.1-0.1,0.2-0.3,0.3-0.5
		s0.1-0.4,0.1-0.6C224.5,6.7,224.5,6.5,224.4,6.3z M222.7,3.9l0.9-1.5l1,0.4l-1.1,1H222.7z"/>
	<path class="st1" d="M227.7,9.2h-1.1V4.5h1.1v0.7c0.1-0.1,0.2-0.2,0.3-0.3c0.1-0.1,0.2-0.2,0.3-0.3c0.1-0.1,0.3-0.1,0.4-0.2
		c0.1,0,0.3-0.1,0.5-0.1c0.5,0,0.9,0.2,1.2,0.5s0.4,0.8,0.4,1.3v3h-1.1V6.5c0-0.4-0.1-0.7-0.3-0.9s-0.4-0.3-0.7-0.3
		c-0.3,0-0.6,0.1-0.8,0.3c-0.2,0.2-0.3,0.5-0.3,0.9V9.2z"/>
</g>
<g class="st0">
	<path class="st1" d="M96.2,19.1c-0.2,0.4-0.4,0.7-0.7,1c-0.3,0.3-0.6,0.5-1.1,0.7C94,20.9,93.6,21,93.1,21h-2.3v-6.3h2.3
		c0.5,0,0.9,0.1,1.3,0.2c0.4,0.2,0.8,0.4,1.1,0.7c0.3,0.3,0.5,0.6,0.7,1c0.2,0.4,0.2,0.8,0.2,1.2C96.4,18.3,96.3,18.7,96.2,19.1z
		 M95.1,17c-0.1-0.3-0.3-0.5-0.4-0.7c-0.2-0.2-0.4-0.3-0.7-0.4c-0.3-0.1-0.6-0.2-0.9-0.2h-1.2V20h1.2c0.3,0,0.6-0.1,0.9-0.2
		c0.3-0.1,0.5-0.3,0.7-0.4c0.2-0.2,0.3-0.4,0.4-0.7c0.1-0.3,0.2-0.5,0.2-0.9C95.2,17.5,95.2,17.3,95.1,17z"/>
	<path class="st1" d="M102,19.6c-0.1,0.3-0.3,0.6-0.5,0.8c-0.2,0.2-0.5,0.4-0.8,0.5s-0.6,0.2-1,0.2c-0.4,0-0.7-0.1-1-0.2
		s-0.6-0.3-0.8-0.5c-0.2-0.2-0.4-0.5-0.5-0.8s-0.2-0.6-0.2-1c0-0.3,0.1-0.7,0.2-1c0.1-0.3,0.3-0.6,0.5-0.8c0.2-0.2,0.5-0.4,0.8-0.5
		c0.3-0.1,0.6-0.2,1-0.2s0.7,0.1,1,0.2s0.6,0.3,0.8,0.5c0.2,0.2,0.4,0.5,0.5,0.8c0.1,0.3,0.2,0.6,0.2,1
		C102.2,19,102.1,19.3,102,19.6z M101,18c-0.1-0.2-0.2-0.3-0.3-0.5c-0.1-0.1-0.3-0.2-0.5-0.3c-0.2-0.1-0.4-0.1-0.6-0.1
		c-0.2,0-0.4,0-0.6,0.1c-0.2,0.1-0.3,0.2-0.4,0.3s-0.2,0.3-0.3,0.5c-0.1,0.2-0.1,0.4-0.1,0.6s0,0.4,0.1,0.6c0.1,0.2,0.2,0.3,0.3,0.5
		c0.1,0.1,0.3,0.2,0.5,0.3c0.2,0.1,0.4,0.1,0.6,0.1c0.2,0,0.4,0,0.6-0.1c0.2-0.1,0.3-0.2,0.4-0.3c0.1-0.1,0.2-0.3,0.3-0.5
		s0.1-0.4,0.1-0.6C101.1,18.4,101.1,18.2,101,18z"/>
</g>
<g class="st0">
	<path class="st1" d="M106.4,20.8c-0.3,0.2-0.7,0.2-1.1,0.2c-0.4,0-0.7-0.1-1-0.2c-0.3-0.1-0.6-0.3-0.8-0.5
		c-0.2-0.2-0.4-0.5-0.5-0.8s-0.2-0.6-0.2-1c0-0.3,0.1-0.7,0.2-1s0.3-0.6,0.5-0.8c0.2-0.2,0.5-0.4,0.8-0.5c0.3-0.1,0.6-0.2,1-0.2
		c0.4,0,0.8,0.1,1.1,0.2c0.3,0.1,0.6,0.3,0.8,0.6l-0.7,0.7c-0.2-0.2-0.3-0.3-0.5-0.4s-0.4-0.2-0.7-0.2c-0.2,0-0.4,0-0.5,0.1
		s-0.3,0.2-0.4,0.3s-0.2,0.3-0.3,0.5s-0.1,0.4-0.1,0.6c0,0.2,0,0.4,0.1,0.6s0.2,0.3,0.3,0.5c0.1,0.1,0.3,0.2,0.4,0.3
		c0.2,0.1,0.4,0.1,0.6,0.1c0.3,0,0.5-0.1,0.7-0.2c0.2-0.1,0.4-0.3,0.5-0.4l0.7,0.6C107,20.5,106.7,20.7,106.4,20.8z"/>
</g>
<g class="st0">
	<path class="st1" d="M109.2,19.9c0.2,0.2,0.5,0.3,0.9,0.3c0.3,0,0.5,0,0.7-0.1c0.2-0.1,0.4-0.2,0.6-0.4l0.6,0.6
		c-0.2,0.3-0.5,0.5-0.8,0.6c-0.3,0.2-0.7,0.2-1.1,0.2c-0.3,0-0.7-0.1-1-0.2c-0.3-0.1-0.6-0.3-0.8-0.5c-0.2-0.2-0.4-0.5-0.5-0.8
		s-0.2-0.6-0.2-1c0-0.3,0.1-0.7,0.2-1s0.3-0.6,0.5-0.8c0.2-0.2,0.4-0.4,0.7-0.5c0.3-0.1,0.6-0.2,0.9-0.2c0.4,0,0.7,0.1,1,0.2
		c0.3,0.1,0.5,0.3,0.7,0.6c0.2,0.2,0.3,0.5,0.4,0.8c0.1,0.3,0.1,0.6,0.1,1c0,0,0,0.1,0,0.1s0,0.1,0,0.2h-3.5
		C108.8,19.4,108.9,19.7,109.2,19.9z M111.1,18.3c0-0.2-0.1-0.3-0.1-0.5c-0.1-0.2-0.1-0.3-0.2-0.4c-0.1-0.1-0.2-0.2-0.4-0.3
		c-0.1-0.1-0.3-0.1-0.5-0.1c-0.3,0-0.6,0.1-0.8,0.3c-0.2,0.2-0.3,0.5-0.4,0.9H111.1z"/>
	<path class="st1" d="M114.2,21h-1.1v-4.7h1.1V17c0.1-0.1,0.2-0.2,0.3-0.3c0.1-0.1,0.2-0.2,0.3-0.3c0.1-0.1,0.3-0.1,0.4-0.2
		c0.1,0,0.3-0.1,0.5-0.1c0.5,0,0.9,0.2,1.2,0.5s0.4,0.8,0.4,1.3v3h-1.1v-2.7c0-0.4-0.1-0.7-0.3-0.9s-0.4-0.3-0.7-0.3
		c-0.3,0-0.6,0.1-0.8,0.3c-0.2,0.2-0.3,0.5-0.3,0.9V21z"/>
</g>
<g class="st0">
	<path class="st1" d="M119.8,19.5c0,0.2,0.1,0.4,0.2,0.5c0.1,0.1,0.2,0.1,0.4,0.1c0.2,0,0.5-0.1,0.7-0.2v0.9
		c-0.1,0.1-0.3,0.1-0.4,0.2c-0.2,0-0.3,0.1-0.5,0.1c-0.2,0-0.4,0-0.5-0.1s-0.3-0.1-0.4-0.2s-0.2-0.2-0.3-0.4
		c-0.1-0.2-0.1-0.4-0.1-0.7v-2.5h-0.6v-0.9h0.6V15h1.1v1.3h1.3v0.9h-1.3V19.5z"/>
</g>
<g class="st0">
	<path class="st1" d="M123.1,19.9c0.2,0.2,0.5,0.3,0.9,0.3c0.3,0,0.5,0,0.7-0.1c0.2-0.1,0.4-0.2,0.6-0.4l0.6,0.6
		c-0.2,0.3-0.5,0.5-0.8,0.6c-0.3,0.2-0.7,0.2-1.1,0.2c-0.3,0-0.7-0.1-1-0.2c-0.3-0.1-0.6-0.3-0.8-0.5c-0.2-0.2-0.4-0.5-0.5-0.8
		s-0.2-0.6-0.2-1c0-0.3,0.1-0.7,0.2-1s0.3-0.6,0.5-0.8c0.2-0.2,0.4-0.4,0.7-0.5c0.3-0.1,0.6-0.2,0.9-0.2c0.4,0,0.7,0.1,1,0.2
		c0.3,0.1,0.5,0.3,0.7,0.6c0.2,0.2,0.3,0.5,0.4,0.8c0.1,0.3,0.1,0.6,0.1,1c0,0,0,0.1,0,0.1s0,0.1,0,0.2h-3.5
		C122.7,19.4,122.9,19.7,123.1,19.9z M125.1,18.3c0-0.2-0.1-0.3-0.1-0.5c-0.1-0.2-0.1-0.3-0.2-0.4c-0.1-0.1-0.2-0.2-0.4-0.3
		c-0.1-0.1-0.3-0.1-0.5-0.1c-0.3,0-0.6,0.1-0.8,0.3c-0.2,0.2-0.3,0.5-0.4,0.9H125.1z"/>
	<path class="st1" d="M130.8,19.9c0.2,0.2,0.5,0.3,0.9,0.3c0.3,0,0.5,0,0.7-0.1c0.2-0.1,0.4-0.2,0.6-0.4l0.6,0.6
		c-0.2,0.3-0.5,0.5-0.8,0.6c-0.3,0.2-0.7,0.2-1.1,0.2c-0.3,0-0.7-0.1-1-0.2c-0.3-0.1-0.6-0.3-0.8-0.5c-0.2-0.2-0.4-0.5-0.5-0.8
		s-0.2-0.6-0.2-1c0-0.3,0.1-0.7,0.2-1s0.3-0.6,0.5-0.8c0.2-0.2,0.4-0.4,0.7-0.5c0.3-0.1,0.6-0.2,0.9-0.2c0.4,0,0.7,0.1,1,0.2
		c0.3,0.1,0.5,0.3,0.7,0.6c0.2,0.2,0.3,0.5,0.4,0.8c0.1,0.3,0.1,0.6,0.1,1c0,0,0,0.1,0,0.1s0,0.1,0,0.2h-3.5
		C130.4,19.4,130.6,19.7,130.8,19.9z M132.8,18.3c0-0.2-0.1-0.3-0.1-0.5c-0.1-0.2-0.1-0.3-0.2-0.4c-0.1-0.1-0.2-0.2-0.4-0.3
		c-0.1-0.1-0.3-0.1-0.5-0.1c-0.3,0-0.6,0.1-0.8,0.3c-0.2,0.2-0.3,0.5-0.4,0.9H132.8z"/>
	<path class="st1" d="M135.9,21h-1.1v-4.7h1.1V17c0.1-0.1,0.2-0.2,0.3-0.3c0.1-0.1,0.2-0.2,0.3-0.3s0.3-0.1,0.4-0.2
		c0.1,0,0.3-0.1,0.5-0.1c0.5,0,0.9,0.2,1.2,0.5s0.4,0.8,0.4,1.3v3h-1.1v-2.7c0-0.4-0.1-0.7-0.3-0.9c-0.2-0.2-0.4-0.3-0.7-0.3
		c-0.3,0-0.6,0.1-0.8,0.3s-0.3,0.5-0.3,0.9V21z"/>
	<path class="st1" d="M143.8,16.7c0,0.1,0.1,0.2,0.2,0.2c0.1,0.1,0.3,0.1,0.5,0.2c0.2,0.1,0.4,0.1,0.7,0.2c0.3,0.1,0.6,0.2,0.9,0.3
		s0.5,0.2,0.6,0.4c0.2,0.1,0.3,0.3,0.4,0.5c0.1,0.2,0.1,0.4,0.1,0.7c0,0.3-0.1,0.6-0.2,0.8s-0.3,0.4-0.5,0.6
		c-0.2,0.2-0.4,0.3-0.7,0.4c-0.3,0.1-0.6,0.1-0.9,0.1c-0.5,0-0.9-0.1-1.4-0.2s-0.8-0.4-1.2-0.8l0.7-0.8c0.3,0.3,0.6,0.5,0.9,0.6
		s0.7,0.2,1.1,0.2c0.3,0,0.6-0.1,0.8-0.2c0.2-0.1,0.3-0.3,0.3-0.6c0-0.1,0-0.2-0.1-0.3c0-0.1-0.1-0.2-0.2-0.2
		c-0.1-0.1-0.2-0.1-0.4-0.2c-0.2-0.1-0.4-0.1-0.7-0.2c-0.3-0.1-0.6-0.2-0.9-0.3c-0.3-0.1-0.5-0.2-0.7-0.4c-0.2-0.1-0.3-0.3-0.4-0.5
		c-0.1-0.2-0.1-0.4-0.1-0.7c0-0.3,0.1-0.5,0.2-0.7c0.1-0.2,0.3-0.4,0.4-0.6c0.2-0.2,0.4-0.3,0.7-0.4c0.3-0.1,0.5-0.1,0.9-0.1
		c0.5,0,0.9,0.1,1.2,0.2s0.7,0.3,1,0.6l-0.6,0.8c-0.3-0.2-0.6-0.4-0.8-0.5c-0.3-0.1-0.6-0.2-0.8-0.2c-0.3,0-0.6,0.1-0.8,0.2
		c-0.2,0.1-0.3,0.3-0.3,0.5C143.7,16.5,143.7,16.6,143.8,16.7z"/>
	<path class="st1" d="M149.5,19.9c0.2,0.2,0.5,0.3,0.9,0.3c0.3,0,0.5,0,0.7-0.1c0.2-0.1,0.4-0.2,0.6-0.4l0.6,0.6
		c-0.2,0.3-0.5,0.5-0.8,0.6c-0.3,0.2-0.7,0.2-1.1,0.2c-0.3,0-0.7-0.1-1-0.2c-0.3-0.1-0.6-0.3-0.8-0.5c-0.2-0.2-0.4-0.5-0.5-0.8
		s-0.2-0.6-0.2-1c0-0.3,0.1-0.7,0.2-1s0.3-0.6,0.5-0.8c0.2-0.2,0.4-0.4,0.7-0.5c0.3-0.1,0.6-0.2,0.9-0.2c0.4,0,0.7,0.1,1,0.2
		c0.3,0.1,0.5,0.3,0.7,0.6c0.2,0.2,0.3,0.5,0.4,0.8c0.1,0.3,0.1,0.6,0.1,1c0,0,0,0.1,0,0.1s0,0.1,0,0.2H149
		C149.1,19.4,149.2,19.7,149.5,19.9z M151.4,18.3c0-0.2-0.1-0.3-0.1-0.5c-0.1-0.2-0.1-0.3-0.2-0.4c-0.1-0.1-0.2-0.2-0.4-0.3
		c-0.1-0.1-0.3-0.1-0.5-0.1c-0.3,0-0.6,0.1-0.8,0.3c-0.2,0.2-0.3,0.5-0.4,0.9H151.4z"/>
	<path class="st1" d="M154.5,21h-1.1v-4.7h1.1v1.1c0.1-0.4,0.4-0.6,0.6-0.9c0.3-0.2,0.6-0.3,1-0.3v1.1h-0.1c-0.2,0-0.5,0-0.7,0.1
		s-0.4,0.2-0.5,0.3c-0.1,0.2-0.3,0.4-0.3,0.6c-0.1,0.2-0.1,0.5-0.1,0.8V21z"/>
	<path class="st1" d="M160.2,16.3h1.1l-1.9,4.8h-1l-1.9-4.8h1.2l1.3,3.5L160.2,16.3z"/>
	<path class="st1" d="M162.1,15.5v-1h1.2v1H162.1z M162.1,21v-4.7h1.1V21H162.1z"/>
	<path class="st1" d="M167.8,20.8c-0.3,0.2-0.7,0.2-1.1,0.2c-0.4,0-0.7-0.1-1-0.2s-0.6-0.3-0.8-0.5c-0.2-0.2-0.4-0.5-0.5-0.8
		s-0.2-0.6-0.2-1c0-0.3,0.1-0.7,0.2-1s0.3-0.6,0.5-0.8s0.5-0.4,0.8-0.5c0.3-0.1,0.6-0.2,1-0.2c0.4,0,0.8,0.1,1.1,0.2
		c0.3,0.1,0.6,0.3,0.8,0.6l-0.7,0.7c-0.2-0.2-0.3-0.3-0.5-0.4s-0.4-0.2-0.7-0.2c-0.2,0-0.4,0-0.5,0.1c-0.2,0.1-0.3,0.2-0.4,0.3
		s-0.2,0.3-0.3,0.5s-0.1,0.4-0.1,0.6c0,0.2,0,0.4,0.1,0.6s0.2,0.3,0.3,0.5c0.1,0.1,0.3,0.2,0.4,0.3c0.2,0.1,0.4,0.1,0.6,0.1
		c0.3,0,0.5-0.1,0.7-0.2c0.2-0.1,0.4-0.3,0.5-0.4l0.7,0.6C168.4,20.5,168.1,20.7,167.8,20.8z"/>
	<path class="st1" d="M169.4,15.5v-1h1.2v1H169.4z M169.5,21v-4.7h1.1V21H169.5z"/>
	<path class="st1" d="M176.4,19.6c-0.1,0.3-0.3,0.6-0.5,0.8c-0.2,0.2-0.5,0.4-0.8,0.5s-0.6,0.2-1,0.2c-0.4,0-0.7-0.1-1-0.2
		s-0.6-0.3-0.8-0.5c-0.2-0.2-0.4-0.5-0.5-0.8s-0.2-0.6-0.2-1c0-0.3,0.1-0.7,0.2-1s0.3-0.6,0.5-0.8c0.2-0.2,0.5-0.4,0.8-0.5
		c0.3-0.1,0.6-0.2,1-0.2s0.7,0.1,1,0.2s0.6,0.3,0.8,0.5c0.2,0.2,0.4,0.5,0.5,0.8c0.1,0.3,0.2,0.6,0.2,1
		C176.5,19,176.5,19.3,176.4,19.6z M175.4,18c-0.1-0.2-0.2-0.3-0.3-0.5c-0.1-0.1-0.3-0.2-0.5-0.3s-0.4-0.1-0.6-0.1s-0.4,0-0.6,0.1
		c-0.2,0.1-0.3,0.2-0.4,0.3s-0.2,0.3-0.3,0.5s-0.1,0.4-0.1,0.6s0,0.4,0.1,0.6s0.2,0.3,0.3,0.5c0.1,0.1,0.3,0.2,0.5,0.3
		s0.4,0.1,0.6,0.1c0.2,0,0.4,0,0.6-0.1c0.2-0.1,0.3-0.2,0.4-0.3c0.1-0.1,0.2-0.3,0.3-0.5c0.1-0.2,0.1-0.4,0.1-0.6
		C175.5,18.4,175.4,18.2,175.4,18z"/>
</g>
<g class="st0">
	<path class="st1" d="M3.5,13.9C3.6,14,3.8,14.1,4,14.3s0.4,0.3,0.6,0.5c0.3,0.2,0.7,0.4,1,0.5c0.3,0.1,0.7,0.2,1.1,0.2
		c0.3,0,0.6,0,0.9-0.1c0.2-0.1,0.4-0.2,0.5-0.3c0.1-0.1,0.2-0.3,0.3-0.4s0.1-0.3,0.1-0.5c0-0.2-0.1-0.4-0.2-0.6
		c-0.2-0.2-0.4-0.3-0.6-0.4c-0.2-0.1-0.5-0.2-0.7-0.3c-0.2-0.1-0.5-0.2-0.6-0.2c-0.8-0.3-1.5-0.6-2.1-0.9c-0.6-0.3-1.1-0.7-1.5-1.1
		c-0.4-0.4-0.7-0.8-0.9-1.3c-0.2-0.5-0.3-1-0.3-1.6c0-0.6,0.1-1.2,0.4-1.7C2,5.4,2.4,5,2.9,4.6c0.5-0.4,1-0.6,1.7-0.8
		c0.7-0.2,1.4-0.3,2.2-0.3c0.6,0,1.2,0.1,1.8,0.2S9.6,4,10.2,4.3c0.2,0.1,0.4,0.3,0.7,0.4C11,4.9,11.2,5,11.4,5.2
		c0.2,0.1,0.3,0.3,0.4,0.4s0.1,0.2,0.1,0.3c0,0.1,0,0.2-0.1,0.2c0,0.1-0.1,0.2-0.2,0.3L10.1,8C10,8.1,9.8,8.2,9.7,8.2
		c-0.1,0-0.2,0-0.3-0.1C9.4,8,9.3,8,9.2,7.9L9.1,7.8C9,7.7,8.8,7.6,8.7,7.5C8.5,7.3,8.3,7.2,8.1,7.1S7.8,7,7.5,6.9
		C7.3,6.8,7.1,6.8,6.9,6.8c-0.2,0-0.4,0-0.6,0.1C6.1,6.9,5.9,6.9,5.8,7C5.6,7.1,5.5,7.2,5.4,7.3S5.3,7.6,5.3,7.8s0,0.4,0.1,0.5
		s0.2,0.3,0.4,0.4C6,8.8,6.3,8.9,6.6,9c0.3,0.1,0.6,0.2,1,0.3c0.7,0.2,1.4,0.5,2,0.7s1.1,0.6,1.6,0.9c0.4,0.4,0.8,0.8,1,1.3
		c0.2,0.5,0.4,1.1,0.4,1.8c0,0.7-0.2,1.4-0.5,2c-0.3,0.6-0.7,1.1-1.2,1.5c-0.5,0.4-1.1,0.8-1.9,1S7.4,19,6.6,19
		c-0.8,0-1.5-0.1-2.3-0.4s-1.4-0.6-2.1-1.1C2,17.2,1.7,17,1.5,16.9c-0.2-0.2-0.3-0.3-0.4-0.5l0,0c0,0,0,0,0,0s0,0,0,0c0,0,0,0,0,0
		c0,0,0,0,0,0c-0.2-0.2-0.2-0.3-0.2-0.4c0-0.1,0.1-0.2,0.2-0.4l1.7-1.7c0.1-0.1,0.3-0.2,0.3-0.2c0.1,0,0.1,0,0.2,0.1
		C3.3,13.8,3.4,13.8,3.5,13.9z"/>
	<path class="st1" d="M14.9,4.2c0-0.1,0-0.2,0.1-0.3c0.1-0.1,0.2-0.1,0.3-0.1h3c0.1,0,0.2,0,0.3,0.1c0.1,0.1,0.2,0.2,0.2,0.3v14.1
		c0,0.3-0.2,0.4-0.5,0.4h-3c-0.3,0-0.4-0.1-0.4-0.4V4.2z"/>
	<path class="st1" d="M22.1,4.3c0-0.1,0-0.3,0.1-0.3c0.1-0.1,0.2-0.1,0.3-0.1h9.7c0.2,0,0.3,0,0.3,0.1c0.1,0.1,0.1,0.2,0.1,0.4v2.5
		c0,0.1,0,0.2-0.1,0.3c-0.1,0.1-0.2,0.2-0.4,0.2H26v3.1h4.5c0.1,0,0.2,0,0.3,0.1s0.1,0.2,0.1,0.3v2.4c0,0.1,0,0.2-0.1,0.3
		c-0.1,0.1-0.2,0.2-0.3,0.2H26v4.6c0,0.3-0.2,0.4-0.5,0.4h-3.1c-0.2,0-0.4-0.2-0.4-0.4V4.3z"/>
	<path class="st1" d="M34.4,11.3c0-0.7,0.1-1.4,0.3-2.1c0.2-0.7,0.4-1.3,0.8-1.8c0.3-0.6,0.7-1.1,1.2-1.6s1-0.9,1.6-1.2
		s1.2-0.6,1.8-0.8c0.7-0.2,1.3-0.3,2.1-0.3c0.7,0,1.4,0.1,2,0.3c0.7,0.2,1.3,0.4,1.8,0.8c0.6,0.3,1.1,0.7,1.6,1.2s0.9,1,1.2,1.6
		c0.3,0.6,0.6,1.2,0.8,1.8c0.2,0.7,0.3,1.3,0.3,2.1s-0.1,1.4-0.3,2.1c-0.2,0.7-0.4,1.3-0.8,1.8c-0.3,0.6-0.7,1.1-1.2,1.6
		c-0.5,0.5-1,0.9-1.6,1.2c-0.6,0.3-1.2,0.6-1.8,0.8c-0.7,0.2-1.3,0.3-2,0.3c-0.7,0-1.4-0.1-2.1-0.3s-1.3-0.4-1.8-0.8
		c-0.6-0.3-1.1-0.7-1.6-1.2c-0.5-0.5-0.9-1-1.2-1.6c-0.3-0.6-0.6-1.2-0.8-1.8C34.5,12.7,34.4,12,34.4,11.3z M38.4,11.3
		c0,0.6,0.1,1.1,0.3,1.6c0.2,0.5,0.5,0.9,0.8,1.3s0.7,0.6,1.2,0.8s1,0.3,1.5,0.3s1.1-0.1,1.5-0.3s0.9-0.5,1.2-0.8
		c0.3-0.4,0.6-0.8,0.8-1.3c0.2-0.5,0.3-1,0.3-1.6c0-0.6-0.1-1.1-0.3-1.6c-0.2-0.5-0.5-0.9-0.8-1.3c-0.3-0.4-0.7-0.6-1.2-0.9
		c-0.5-0.2-1-0.3-1.5-0.3s-1.1,0.1-1.5,0.3c-0.5,0.2-0.9,0.5-1.2,0.9s-0.6,0.8-0.8,1.3C38.4,10.2,38.4,10.7,38.4,11.3z"/>
</g>
<g class="st0">
	<path class="st1" d="M65.3,11.3c0,0.7-0.1,1.4-0.3,2c-0.2,0.6-0.4,1.2-0.8,1.8s-0.7,1.1-1.2,1.5c-0.5,0.5-1,0.8-1.6,1.2
		s-1.2,0.6-1.8,0.7c-0.7,0.2-1.3,0.3-2,0.3h-5c-0.1,0-0.2,0-0.3-0.1c-0.1-0.1-0.1-0.2-0.1-0.3V4.3c0-0.1,0-0.3,0.1-0.3
		c0.1-0.1,0.2-0.1,0.3-0.1h5c0.7,0,1.4,0.1,2,0.3s1.3,0.4,1.8,0.7c0.6,0.3,1.1,0.7,1.6,1.2c0.5,0.5,0.9,1,1.2,1.5
		C64.6,8,64.8,8.6,65,9.3S65.3,10.6,65.3,11.3z M56.1,7.4v7.8h0.8c0.2,0,0.3,0,0.5,0s0.3,0,0.4,0c0.5,0,1-0.2,1.4-0.4
		c0.4-0.2,0.8-0.5,1.1-0.8c0.3-0.3,0.6-0.7,0.8-1.2c0.2-0.5,0.3-0.9,0.3-1.5c0-0.6-0.1-1.1-0.3-1.6c-0.2-0.5-0.5-0.9-0.9-1.2
		S59.5,7.9,59,7.7c-0.5-0.2-1-0.3-1.6-0.3H56.1z"/>
</g>
<g class="st0">
	<path class="st1" d="M69.2,13.9c0.1,0.1,0.3,0.2,0.4,0.4s0.4,0.3,0.6,0.5c0.3,0.2,0.7,0.4,1,0.5c0.3,0.1,0.7,0.2,1.1,0.2
		c0.3,0,0.6,0,0.9-0.1c0.2-0.1,0.4-0.2,0.5-0.3c0.1-0.1,0.2-0.3,0.3-0.4s0.1-0.3,0.1-0.5c0-0.2-0.1-0.4-0.2-0.6
		c-0.2-0.2-0.4-0.3-0.6-0.4c-0.2-0.1-0.5-0.2-0.7-0.3c-0.2-0.1-0.5-0.2-0.6-0.2c-0.8-0.3-1.5-0.6-2.1-0.9c-0.6-0.3-1.1-0.7-1.5-1.1
		c-0.4-0.4-0.7-0.8-0.9-1.3c-0.2-0.5-0.3-1-0.3-1.6c0-0.6,0.1-1.2,0.4-1.7c0.3-0.5,0.6-0.9,1.1-1.3c0.5-0.4,1-0.6,1.7-0.8
		c0.7-0.2,1.4-0.3,2.2-0.3c0.6,0,1.2,0.1,1.8,0.2s1.1,0.4,1.7,0.7c0.2,0.1,0.4,0.3,0.7,0.4c0.2,0.1,0.4,0.3,0.5,0.4
		c0.2,0.1,0.3,0.3,0.4,0.4s0.1,0.2,0.1,0.3c0,0.1,0,0.2-0.1,0.2c0,0.1-0.1,0.2-0.2,0.3L75.8,8c-0.1,0.1-0.2,0.2-0.3,0.2
		c-0.1,0-0.2,0-0.3-0.1C75.1,8,75,8,74.9,7.9l-0.1-0.1c-0.1-0.1-0.3-0.2-0.4-0.4c-0.2-0.1-0.3-0.2-0.5-0.3S73.5,7,73.2,6.9
		c-0.2-0.1-0.4-0.1-0.6-0.1c-0.2,0-0.4,0-0.6,0.1c-0.2,0-0.4,0.1-0.5,0.2c-0.1,0.1-0.3,0.2-0.4,0.3S71,7.6,71,7.8s0,0.4,0.1,0.5
		s0.2,0.3,0.4,0.4C71.7,8.8,72,8.9,72.3,9c0.3,0.1,0.6,0.2,1,0.3c0.7,0.2,1.4,0.5,2,0.7s1.1,0.6,1.6,0.9c0.4,0.4,0.8,0.8,1,1.3
		c0.2,0.5,0.4,1.1,0.4,1.8c0,0.7-0.2,1.4-0.5,2c-0.3,0.6-0.7,1.1-1.2,1.5c-0.5,0.4-1.1,0.8-1.9,1S73.1,19,72.3,19
		c-0.8,0-1.5-0.1-2.3-0.4s-1.4-0.6-2.1-1.1c-0.3-0.2-0.5-0.4-0.7-0.6c-0.2-0.2-0.3-0.3-0.4-0.5l0,0c0,0,0,0,0,0s0,0,0,0c0,0,0,0,0,0
		c0,0,0,0,0,0c-0.2-0.2-0.2-0.3-0.2-0.4c0-0.1,0.1-0.2,0.2-0.4l1.7-1.7c0.1-0.1,0.3-0.2,0.3-0.2c0.1,0,0.1,0,0.2,0.1
		C69,13.8,69.1,13.8,69.2,13.9z"/>
</g>
<line class="st2" x1="85.6" y1="0.6" x2="85.6" y2="22.5"/>
</svg>
